M48
; DRILL file KiCad 10.0.0 date 2026-05-22T23:13:50
; FORMAT={-:-/ absolute / metric / decimal}
; #@! TF.CreationDate,2026-05-22T23:13:50-05:00
; #@! TF.GenerationSoftware,Kicad,Pcbnew,10.0.0
; #@! TF.FileFunction,Plated,1,2,PTH
FMAT,2
METRIC
; #@! TA.AperFunction,Plated,PTH,ComponentDrill
T1C0.200
; #@! TA.AperFunction,Plated,PTH,ViaDrill
T2C0.300
; #@! TA.AperFunction,Plated,PTH,ComponentDrill
T3C0.450
; #@! TA.AperFunction,Plated,PTH,ComponentDrill
T4C0.600
; #@! TA.AperFunction,Plated,PTH,ComponentDrill
T5C0.800
%
G90
G05
T1
X124.596Y-86.6
X124.596Y-88.0
X125.296Y-85.9
X125.296Y-87.3
X125.296Y-88.7
X125.996Y-86.6
X125.996Y-88.0
X126.696Y-85.9
X126.696Y-87.3
X126.696Y-88.7
X127.396Y-86.6
X127.396Y-88.0
T2
X102.1Y-65.8
X102.2Y-51.6
X102.2Y-52.6
X102.2Y-53.6
X103.0Y-65.8
X104.0Y-65.8
X105.6Y-58.1
X107.35Y-63.65
X107.9Y-69.1
X109.075Y-80.425
X110.7Y-74.7
X110.7Y-78.7
X110.825Y-93.175
X111.2Y-89.5
X111.4Y-84.9
X112.3Y-76.5
X112.9Y-56.6
X113.0Y-87.4
X113.0Y-92.65
X113.9Y-83.6
X117.0Y-63.9
X119.0Y-64.7
X119.4Y-78.7
X119.9Y-64.7
X121.0Y-56.0
X121.1Y-74.7
X122.171Y-78.829
X123.632Y-51.5
X124.0Y-60.025
X124.032Y-53.868
X125.232Y-51.271
X126.9Y-50.6
X127.3Y-68.3
X129.0Y-79.5
X129.1Y-65.1
X129.9Y-65.1
X130.7Y-65.1
X131.22Y-79.78
X131.8Y-50.1
X133.246Y-75.746
X134.0Y-61.0
X136.35Y-64.85
X138.3Y-90.8
X139.3Y-90.8
X139.85Y-57.85
X140.3Y-90.8
X141.1Y-95.5
X141.2Y-90.8
X142.1Y-73.2
X142.1Y-74.2
X142.1Y-75.2
X142.1Y-90.8
X143.6Y-71.5
X144.5Y-50.4
X144.5Y-51.4
X144.5Y-52.4
T3
X121.312Y-51.395
X127.952Y-51.395
T5
X106.1Y-48.83
X108.1Y-48.83
X110.1Y-48.83
X136.2Y-48.65
X138.2Y-48.65
X140.2Y-48.65
T4
G00X120.012Y-52.67
M15
G01X120.012Y-51.27
M16
G05
G00X120.312Y-48.97
M15
G01X120.312Y-47.87
M16
G05
G00X128.952Y-48.97
M15
G01X128.952Y-47.87
M16
G05
G00X129.252Y-52.67
M15
G01X129.252Y-51.27
M16
G05
M30
