%TF.GenerationSoftware,KiCad,Pcbnew,10.0.0*%
%TF.CreationDate,2026-05-22T23:13:41-05:00*%
%TF.ProjectId,P.I6Def,502e4936-4465-4662-9e6b-696361645f70,rev?*%
%TF.SameCoordinates,Original*%
%TF.FileFunction,Paste,Top*%
%TF.FilePolarity,Positive*%
%FSLAX46Y46*%
G04 Gerber Fmt 4.6, Leading zero omitted, Abs format (unit mm)*
G04 Created by KiCad (PCBNEW 10.0.0) date 2026-05-22 23:13:41*
%MOMM*%
%LPD*%
G01*
G04 APERTURE LIST*
G04 Aperture macros list*
%AMRoundRect*
0 Rectangle with rounded corners*
0 $1 Rounding radius*
0 $2 $3 $4 $5 $6 $7 $8 $9 X,Y pos of 4 corners*
0 Add a 4 corners polygon primitive as box body*
4,1,4,$2,$3,$4,$5,$6,$7,$8,$9,$2,$3,0*
0 Add four circle primitives for the rounded corners*
1,1,$1+$1,$2,$3*
1,1,$1+$1,$4,$5*
1,1,$1+$1,$6,$7*
1,1,$1+$1,$8,$9*
0 Add four rect primitives between the rounded corners*
20,1,$1+$1,$2,$3,$4,$5,0*
20,1,$1+$1,$4,$5,$6,$7,0*
20,1,$1+$1,$6,$7,$8,$9,0*
20,1,$1+$1,$8,$9,$2,$3,0*%
G04 Aperture macros list end*
%ADD10R,1.150000X1.470000*%
%ADD11R,1.420000X0.890000*%
%ADD12R,1.400000X2.100000*%
%ADD13R,1.160000X1.470000*%
%ADD14R,1.150000X1.150000*%
%ADD15RoundRect,0.135000X-0.575000X0.405000X-0.575000X-0.405000X0.575000X-0.405000X0.575000X0.405000X0*%
%ADD16R,0.890000X1.420000*%
%ADD17R,0.890000X1.900000*%
%ADD18R,3.190000X1.900000*%
%ADD19R,0.570000X0.850000*%
%ADD20R,0.250000X0.850000*%
%ADD21R,0.200000X0.850000*%
%ADD22R,1.710000X2.600000*%
%ADD23RoundRect,0.050000X-0.545000X-0.150000X0.545000X-0.150000X0.545000X0.150000X-0.545000X0.150000X0*%
%ADD24R,1.470000X1.110000*%
%ADD25RoundRect,0.050000X0.545000X0.150000X-0.545000X0.150000X-0.545000X-0.150000X0.545000X-0.150000X0*%
%ADD26R,0.900000X0.900000*%
%ADD27R,1.500000X0.900000*%
%ADD28R,0.900000X1.500000*%
%ADD29R,1.470000X1.160000*%
%ADD30R,5.500000X1.000000*%
%ADD31R,3.000000X1.600000*%
%ADD32RoundRect,0.050000X-0.150000X0.545000X-0.150000X-0.545000X0.150000X-0.545000X0.150000X0.545000X0*%
%ADD33R,2.100000X1.400000*%
%ADD34R,1.470000X1.150000*%
G04 APERTURE END LIST*
D10*
%TO.C,C7*%
X106520000Y-56070000D03*
X108280000Y-56070000D03*
%TD*%
D11*
%TO.C,R5*%
X112100000Y-52045000D03*
X112100000Y-53985000D03*
%TD*%
D12*
%TO.C,SW2*%
X138250000Y-87550000D03*
X142750000Y-87550000D03*
X138250000Y-78450000D03*
X142750000Y-78450000D03*
%TD*%
D13*
%TO.C,C17*%
X113775000Y-62300000D03*
X112025000Y-62300000D03*
%TD*%
D14*
%TO.C,R10*%
X114400000Y-70425000D03*
X114400000Y-72775000D03*
%TD*%
D15*
%TO.C,C10*%
X117000000Y-60005000D03*
X117000000Y-61795000D03*
%TD*%
D14*
%TO.C,R1*%
X134100000Y-54275000D03*
X134100000Y-51925000D03*
%TD*%
%TO.C,R11*%
X110700000Y-82775000D03*
X110700000Y-80425000D03*
%TD*%
D16*
%TO.C,R13*%
X129270000Y-55200000D03*
X127330000Y-55200000D03*
%TD*%
D13*
%TO.C,C14*%
X139625000Y-68500000D03*
X141375000Y-68500000D03*
%TD*%
D17*
%TO.C,VR1*%
X121950000Y-63850000D03*
X123450000Y-63850000D03*
X124950000Y-63850000D03*
X126450000Y-63850000D03*
D18*
X124200000Y-57750000D03*
%TD*%
D14*
%TO.C,R14*%
X110825000Y-94500000D03*
X113175000Y-94500000D03*
%TD*%
D19*
%TO.C,J3*%
X128266750Y-52395000D03*
D20*
X126906750Y-52395000D03*
D21*
X126031750Y-52395000D03*
X125231750Y-52395000D03*
X124031750Y-52395000D03*
X123231750Y-52395000D03*
D20*
X122356750Y-52395000D03*
D19*
X120996750Y-52395000D03*
D20*
X121606750Y-52395000D03*
X122806750Y-52395000D03*
D21*
X123631750Y-52395000D03*
X124431750Y-52395000D03*
X124831750Y-52395000D03*
X125631750Y-52395000D03*
D20*
X126456750Y-52395000D03*
X127656750Y-52395000D03*
D22*
X126196750Y-48570000D03*
X123066750Y-48570000D03*
%TD*%
D23*
%TO.C,U4*%
X104040000Y-62350000D03*
X104040000Y-63000000D03*
X104040000Y-63650000D03*
X105960000Y-63650000D03*
X105960000Y-62350000D03*
%TD*%
D24*
%TO.C,C11*%
X139000000Y-93700000D03*
X139000000Y-95500000D03*
%TD*%
D25*
%TO.C,U2*%
X139960000Y-66150000D03*
X139960000Y-65500000D03*
X139960000Y-64850000D03*
X138040000Y-64850000D03*
X138040000Y-66150000D03*
%TD*%
D11*
%TO.C,R8*%
X132000000Y-72470000D03*
X132000000Y-70530000D03*
%TD*%
D26*
%TO.C,U6*%
X127400000Y-85900000D03*
X127395606Y-88700000D03*
X127395606Y-87300000D03*
X126000000Y-85900000D03*
X125995606Y-88700000D03*
X125995606Y-87300000D03*
X124600000Y-85900000D03*
X124595606Y-88700000D03*
X124595606Y-87300000D03*
D27*
X133245606Y-95020000D03*
X133245606Y-93750000D03*
X133245606Y-92480000D03*
X133245606Y-91210000D03*
X133245606Y-89940000D03*
X133245606Y-88670000D03*
X133245606Y-87400000D03*
X133245606Y-86130000D03*
X133245606Y-84860000D03*
X133245606Y-83590000D03*
X133245606Y-82320000D03*
X133245606Y-81050000D03*
X133245606Y-79780000D03*
X133245606Y-78510000D03*
D28*
X131480606Y-77260000D03*
X130210606Y-77260000D03*
X128940606Y-77260000D03*
X127670606Y-77260000D03*
X126400606Y-77260000D03*
X125130606Y-77260000D03*
X123860606Y-77260000D03*
X122590606Y-77260000D03*
X121320606Y-77260000D03*
X120050606Y-77260000D03*
X118780606Y-77260000D03*
X117510606Y-77260000D03*
D27*
X115745606Y-78510000D03*
X115745606Y-79780000D03*
X115745606Y-81050000D03*
X115745606Y-82320000D03*
X115745606Y-83590000D03*
X115745606Y-84860000D03*
X115745606Y-86130000D03*
X115745606Y-87400000D03*
X115745606Y-88670000D03*
X115745606Y-89940000D03*
X115745606Y-91210000D03*
X115745606Y-92480000D03*
X115745606Y-93750000D03*
X115745606Y-95020000D03*
%TD*%
D29*
%TO.C,C13*%
X119400000Y-60025000D03*
X119400000Y-61775000D03*
%TD*%
D11*
%TO.C,R2*%
X136900000Y-52230000D03*
X136900000Y-54170000D03*
%TD*%
D23*
%TO.C,U5*%
X136040000Y-57850000D03*
X136040000Y-58500000D03*
X136040000Y-59150000D03*
X137960000Y-59150000D03*
X137960000Y-57850000D03*
%TD*%
D16*
%TO.C,R6*%
X108370000Y-53870000D03*
X106430000Y-53870000D03*
%TD*%
D30*
%TO.C,J5*%
X106070000Y-91500000D03*
X106070000Y-89500000D03*
X106070000Y-87500000D03*
X106070000Y-85500000D03*
D31*
X103820000Y-93900000D03*
X103820000Y-83100000D03*
%TD*%
D29*
%TO.C,C9*%
X129500000Y-72375000D03*
X129500000Y-70625000D03*
%TD*%
D15*
%TO.C,C1*%
X131100000Y-59905000D03*
X131100000Y-61695000D03*
%TD*%
D11*
%TO.C,R7*%
X136000000Y-73530000D03*
X136000000Y-75470000D03*
%TD*%
D13*
%TO.C,C12*%
X139225000Y-55800000D03*
X140975000Y-55800000D03*
%TD*%
D10*
%TO.C,C16*%
X114380000Y-66000000D03*
X112620000Y-66000000D03*
%TD*%
D32*
%TO.C,U3*%
X113605000Y-58180000D03*
X112955000Y-58180000D03*
X112305000Y-58180000D03*
X112305000Y-60100000D03*
X113605000Y-60100000D03*
%TD*%
D29*
%TO.C,C2*%
X128900000Y-59900000D03*
X128900000Y-61650000D03*
%TD*%
%TO.C,C5*%
X136400000Y-93725000D03*
X136400000Y-95475000D03*
%TD*%
%TO.C,C6*%
X138500000Y-75375000D03*
X138500000Y-73625000D03*
%TD*%
D14*
%TO.C,R9*%
X112300000Y-70425000D03*
X112300000Y-72775000D03*
%TD*%
D11*
%TO.C,R3*%
X144500000Y-61030000D03*
X144500000Y-62970000D03*
%TD*%
D33*
%TO.C,SW3*%
X126650000Y-74750000D03*
X126650000Y-70250000D03*
X117550000Y-74750000D03*
X117550000Y-70250000D03*
%TD*%
D30*
%TO.C,J4*%
X106050000Y-77700000D03*
X106050000Y-75700000D03*
X106050000Y-73700000D03*
X106050000Y-71700000D03*
D31*
X103800000Y-80100000D03*
X103800000Y-69300000D03*
%TD*%
D14*
%TO.C,R4*%
X114500000Y-51625000D03*
X114500000Y-53975000D03*
%TD*%
D16*
%TO.C,R12*%
X119470000Y-56000000D03*
X117530000Y-56000000D03*
%TD*%
D13*
%TO.C,C15*%
X107375000Y-60000000D03*
X105625000Y-60000000D03*
%TD*%
D34*
%TO.C,C8*%
X141500000Y-62880000D03*
X141500000Y-61120000D03*
%TD*%
M02*
